<svg xmlns="http://www.w3.org/2000/svg" viewBox="0 0 24 24" fill="#217346"><path d="M23.004 1.5q.41 0 .703.293t.293.703v19.008q0 .41-.293.703t-.703.293H6.996q-.41 0-.703-.293T6 21.504V18H.996q-.41 0-.703-.293T0 17.004V6.996q0-.41.293-.703T.996 6H6V2.496q0-.41.293-.703t.703-.293zM8.211 17.004l2.36-3.996-2.196-3.946h1.72l1.347 2.711q.187.399.246.586h.018q.127-.3.27-.6l1.418-2.697h1.58l-2.26 3.906L14.976 17h-1.7l-1.476-2.883q-.12-.222-.193-.42h-.024q-.072.186-.18.408L9.884 17zM22.5 21v-3h-15v3zm0-4.5v-3.75h-15v3.75zm0-5.25V7.5h-15v3.75zm0-5.25V3h-15v3z"/></svg>