<svg xmlns="http://www.w3.org/2000/svg" viewBox="0 0 24 24" fill="#B7472A"><path d="M23.004 1.5q.41 0 .703.293t.293.703v19.008q0 .41-.293.703t-.703.293H6.996q-.41 0-.703-.293T6 21.504V18H.996q-.41 0-.703-.293T0 17.004V6.996q0-.41.293-.703T.996 6H6V2.496q0-.41.293-.703t.703-.293zM7.83 8.063H3.15V17h1.665v-2.87h2.418q.66 0 1.2-.24t.93-.66.624-.978.222-1.224q0-.63-.198-1.17t-.57-.948-.9-.636-1.185-.21h-.525zm-.168 4.5H4.815V9.66h2.607q.81 0 1.23.432t.42 1.14q0 .39-.108.696t-.312.504-.498.312-.708.108l.216-.29zM22.5 21v-3h-15v3zm0-4.5v-3.75h-15v3.75zm0-5.25V7.5h-15v3.75zm0-5.25V3h-15v3z"/></svg>